<?xml version="1.0" encoding="UTF-8"?>
<svg enable-background="new 0 0 512 512" version="1.1" viewBox="0 0 512 512" xml:space="preserve" xmlns="http://www.w3.org/2000/svg">
<path d="m438.36 129.15c0 15.156-2.604 29.676-7.409 43.187-16.891-23.653-76.829 31.643-108.12 31.643-16.658 0-56.408-27.084-69.945-19.429-20.13-33.433-66.059 9.715-46.63-50.516 2.661-8.247-12.71-43.564-20.832-41.737 15.842-53.369 65.272-92.294 123.8-92.294 71.321 0 129.14 57.824 129.14 129.15z" fill="#F7B239"/>
<path d="m349.17 6.311c-12.583-4.091-26.01-6.311-39.955-6.311-58.524 0-107.95 38.925-123.8 92.293 8.122-1.826 16.567-2.785 25.233-2.785 11.394 0 22.395 1.667 32.788 4.751 15.146-46.493 55.961-81.387 105.73-87.948z" fill="#E09B2D"/>
<path d="m448.27 224.68c24.819 1.606 44.469 22.228 44.469 47.461 0 26.27-21.295 47.565-47.565 47.565h-351.38c-41.166 0-74.534-33.381-74.534-74.547s33.368-74.547 74.534-74.547c2.293 0 4.547 0.117 6.775 0.324 11.995-39.262 44.391-69.599 84.845-78.64 8.122-1.826 16.567-2.785 25.233-2.785 41.865 0 78.511 22.358 98.64 55.79 13.536-7.655 29.145-12.034 45.803-12.034 31.296 0 58.964 15.415 75.855 39.068 10.584 14.806 16.957 32.837 17.32 52.345z" fill="#2197D8"/>
<path d="m59.423 254.22c0-41.166 33.368-74.547 74.534-74.547 2.293 0 4.547 0.117 6.775 0.324 11.995-39.262 44.391-69.599 84.845-78.64 8.122-1.826 16.567-2.785 25.233-2.785 1.654 0 3.298 0.048 4.935 0.117-13.85-5.905-29.088-9.184-45.095-9.184-8.666 0-17.111 0.959-25.233 2.785-40.454 9.042-72.85 39.378-84.845 78.64-2.228-0.207-4.482-0.324-6.775-0.324-41.166 0-74.534 33.381-74.534 74.547s33.368 74.547 74.534 74.547h4.512c-23.167-12.645-38.886-37.227-38.886-65.48z" fill="#178BBF"/>
<path d="m155.54 512c-3.806 0-7.42-2.251-8.973-5.986l-60.233-144.75c-2.061-4.953 0.284-10.641 5.237-12.702 4.951-2.061 10.641 0.284 12.702 5.237l60.233 144.76c2.061 4.953-0.284 10.641-5.237 12.702-1.221 0.508-2.485 0.748-3.729 0.748z" fill="#2197D8"/>
<path d="m252.6 512c-3.806 0-7.42-2.251-8.973-5.986l-60.233-144.75c-2.061-4.953 0.284-10.641 5.237-12.702 4.951-2.061 10.64 0.284 12.702 5.237l60.233 144.76c2.061 4.953-0.284 10.641-5.238 12.702-1.219 0.508-2.483 0.748-3.728 0.748z" fill="#2BA5F7"/>
<path d="m349.67 512c-3.806 0-7.42-2.251-8.974-5.986l-60.233-144.75c-2.061-4.953 0.284-10.641 5.238-12.702 4.951-2.062 10.64 0.284 12.702 5.237l60.233 144.76c2.061 4.953-0.284 10.641-5.238 12.702-1.22 0.508-2.484 0.748-3.728 0.748z" fill="#2197D8"/>
<path d="m446.73 512c-3.806 0-7.42-2.251-8.974-5.986l-60.233-144.75c-2.061-4.953 0.284-10.641 5.238-12.702 4.951-2.062 10.639 0.284 12.702 5.237l60.233 144.76c2.061 4.953-0.284 10.641-5.238 12.702-1.219 0.508-2.484 0.748-3.728 0.748z" fill="#2BA5F7"/>
</svg>
